<?xml version="1.0" encoding="UTF-8"?>
<svg id="Livello_1" xmlns="http://www.w3.org/2000/svg" version="1.1" viewBox="0 0 24 24">
  <!-- Generator: Adobe Illustrator 29.5.1, SVG Export Plug-In . SVG Version: 2.1.0 Build 141)  -->
  <path d="M11,4h-4.2c-1.68,0-2.52,0-3.16.33-.56.29-1.02.75-1.31,1.31-.33.64-.33,1.48-.33,3.16v8.4c0,1.68,0,2.52.33,3.16.29.56.75,1.02,1.31,1.31.64.33,1.48.33,3.16.33h8.4c1.68,0,2.52,0,3.16-.33.56-.29,1.02-.75,1.31-1.31.33-.64.33-1.48.33-3.16v-4.2M8,16h1.67c.49,0,.73,0,.96-.06.2-.05.4-.13.58-.24.2-.12.37-.3.72-.64l9.56-9.56c.83-.83.83-2.17,0-3-.83-.83-2.17-.83-3,0l-9.56,9.56c-.35.35-.52.52-.64.72-.11.18-.19.37-.24.58-.06.23-.06.47-.06.96v1.67Z" fill="none" stroke="#000" stroke-linecap="round" stroke-linejoin="round"/>
</svg>