<?xml version="1.0" encoding="UTF-8"?>
<svg id="Livello_1" xmlns="http://www.w3.org/2000/svg" version="1.1" viewBox="0 0 24 24">
  <!-- Generator: Adobe Illustrator 29.5.1, SVG Export Plug-In . SVG Version: 2.1.0 Build 141)  -->
  <path d="M7,3v3.4c0,.56,0,.84.11,1.05.1.19.25.34.44.44.21.11.49.11,1.05.11h6.8c.56,0,.84,0,1.05-.11.19-.1.34-.25.44-.44.11-.21.11-.49.11-1.05v-2.4M17,21v-6.4c0-.56,0-.84-.11-1.05-.1-.19-.25-.34-.44-.44-.21-.11-.49-.11-1.05-.11h-6.8c-.56,0-.84,0-1.05.11-.19.1-.34.25-.44.44-.11.21-.11.49-.11,1.05v6.4M21,9.33v6.87c0,1.68,0,2.52-.33,3.16-.29.56-.75,1.02-1.31,1.31-.64.33-1.48.33-3.16.33H7.8c-1.68,0-2.52,0-3.16-.33-.56-.29-1.02-.75-1.31-1.31-.33-.64-.33-1.48-.33-3.16V7.8c0-1.68,0-2.52.33-3.16.29-.56.75-1.02,1.31-1.31.64-.33,1.48-.33,3.16-.33h6.87c.49,0,.73,0,.96.06.2.05.4.13.58.24.2.12.37.3.72.64l3.13,3.13c.35.35.52.52.64.72.11.18.19.37.24.58.06.23.06.47.06.96Z" fill="none" stroke="#000" stroke-linecap="round" stroke-linejoin="round"/>
</svg>